<svg id="Layer_1" data-name="Layer 1" xmlns="http://www.w3.org/2000/svg" viewBox="0 0 884.86 986.46"><defs><style>.cls-1{fill:#fff;}</style></defs><path class="cls-1" d="M884.75,436.51,883.19,435h1.56a438.24,438.24,0,0,0-6-65,424.68,424.68,0,0,0-12.34-53.42,433.17,433.17,0,0,0-29-72.79A439.12,439.12,0,0,0,811,198.11c-2.12-3.13-4.19-6.2-6.37-9.21l-13.26-17.82-6.27-8q-7.71-9.47-15.91-18.42a446.48,446.48,0,0,0-73-64.25,10.58,10.58,0,0,0-1.12-.72q-8.37-6-17.08-11.39c-3.68-2.4-7.53-4.69-11.38-7A442,442,0,0,0,562.17,16.58c-4.64-1.29-9.33-2.51-14-3.63A436,436,0,0,0,448.35.11C446.12,0,443.83,0,441.59,0c-2.57,0-5.12.06-7.68.11a19.61,19.61,0,0,0-2.76,0c-.46,0-.93,0-1.39,0V.26a22.15,22.15,0,0,0-4.33,1,14.68,14.68,0,0,0-8.05,7c-11.86,2.48-23.9,2.76-36.19,3.21,0-.08-.05-.15-.09-.22-3.85-7.82-11.2-13.15-21.47-9.63-8.5,5-12.61,12.25-8.3,21.6a21.35,21.35,0,0,0,5.94,7.85c-3.62,7-7.59,14-11.37,21.14a8.41,8.41,0,0,0-2.19-.6c-5.31-.28-10.34,2-11.53,8.56.11,6,2.76,10.37,9,10.86,5.72.45,10.81-2.21,11.28-8.28A10.52,10.52,0,0,0,349.1,54c3.51-7,7.27-14.08,11.28-21a13.74,13.74,0,0,0,11.82-.22c7.16-3.3,11.92-10.23,10.17-17.91,11-.68,22.13-1,33,.23a22,22,0,0,0,.56,7.22,26.8,26.8,0,0,0,1.19,2.46C410.64,40.34,400.78,54.18,393,70a16.33,16.33,0,0,0-12.49-.31c-7.68,4.49-11.71,10.87-9.26,19-12.38,3-25.13,5.8-37.85,6.57A8.16,8.16,0,0,0,327,89.81c-5.45-1.1-11.06,1.33-12.12,7.39-.91,5.24.79,10.51,7.12,12.47,6,.6,10.62-1.51,11.86-7.67,0-.18,0-.36,0-.54,12.39-4.53,25.41-6.65,38.64-9.49,2.47,5,6.28,8.69,10.91,9.88-2.85,17.81-4.73,37.4-10.71,55.23a8.21,8.21,0,0,0-7.37,3.89c-3.06,4.64-2.91,10.75,2.31,14,3.33,2.07,7.2,2.8,10.68,1l-26.7,26.7-20.1,20.15L234.5,319.91h-.05l-40.25,40.3-28.41,28.41-48.57,48.51L82.89,471.51.06,554.35H0v.06l77,76.92L351.67,906l62.74,62.8,14.23,14.23v-2.79l1.12,6.2L681,735.21l17.13-17.08,46.22-46.33,20.38-20.27v0l109-109a446.89,446.89,0,0,0,11.1-99.19C884.86,441,884.86,438.8,884.75,436.51ZM420.91,29.85a13.7,13.7,0,0,0,8.85,3.54V91.31c-9.59-1.81-17.06-4.77-26.45-7.58a15.55,15.55,0,0,0-1.37-4.43A21.34,21.34,0,0,0,396,71.78C403.51,57.87,411.15,43,420.91,29.85Zm337.3,447.58c-.56,5.08-1.17,10.1-2,15l-60.9,60.95h-.05L681,567.69v.06l-14.4,14.34-69.39,69.39L577,671.8h-.06l-86.07,86.07-32.32,32.38h-.06l-29.81,29.81v-2.79L165.73,554.35h.11l28.36-28.41,54.48-54.43L283,437.13l28.41-28.41,20.15-20.1,68.66-68.71,14.24-14.18,14.17-14.24V125.71l-46.21,46.21c2.2-4.91,1.71-9.54-3.17-12.76-.16-.1-.33-.13-.5-.23.63-18.79,6.27-36.93,8-56.7a15,15,0,0,0,6.28-1.45A17.77,17.77,0,0,0,403,89.85,166,166,0,0,1,429.76,98v27.17c3.91-.17,7.87-.22,11.83-.22s8,0,12,.22a317.64,317.64,0,0,1,94.56,18.08,296,296,0,0,1,38.29,16.53h0a315.4,315.4,0,0,1,58.17,38.35h1.62l12.28,12.17c2.73,2.51,5.41,5.13,8,7.75,2.79,2.8,5.47,5.59,8.15,8.43l6.25,6.31-.28.28a316.57,316.57,0,0,1,53,83.45q4.86,11,8.71,22.27A315.66,315.66,0,0,1,759.88,435c.06,2.74.11,5.58.11,8.32A329.18,329.18,0,0,1,758.21,477.43Z"/></svg>